<svg xmlns="http://www.w3.org/2000/svg" width="512" height="512" viewBox="0 0 512 512" version="1.1"><path d="M 111 95.500 L 111 111 98 111 L 85 111 85 137 L 85 163 98 163 L 111 163 111 179 L 111 195 140 195 L 169 195 169 179 L 169 163 184.500 163 L 200 163 200 137 L 200 111 184.500 111 L 169 111 169 95.500 L 169 80 140 80 L 111 80 111 95.500 M 142.658 330.661 C 142.296 341.474, 142 360.374, 142 372.661 L 142 395 126.500 395 L 111 395 111 382 L 111 369 82 369 L 53 369 53 382.500 L 53 396 68.500 396 L 84 396 84 409 L 84 422 97.500 422 L 111 422 111 438 L 111 454 140 454 L 169 454 169 467 L 169 480 256 480 L 343 480 343 467 L 343 454 372 454 L 401 454 401 438 L 401 422 414 422 L 427 422 427 409 L 427 396 443 396 L 459 396 459 382.500 L 459 369 430 369 L 401 369 401 381.840 L 401 394.681 377.750 395.338 C 364.962 395.700, 325.813 395.996, 290.750 395.998 L 227 396 227 353.500 L 227 311 185.158 311 L 143.317 311 142.658 330.661 M 143 409 L 143 422 185 422 L 227 422 227 409 L 227 396 185 396 L 143 396 143 409" stroke="none" fill="#cdc7e1" fill-rule="evenodd"/><path d="M 169 10.500 L 169 21 139.500 21 L 110 21 110 36.500 L 110 52 97 52 L 84 52 84 65.500 L 84 79 68 79 L 52 79 52 94.470 L 52 109.940 39.250 110.220 L 26.500 110.500 26.233 136.750 L 25.967 163 12.983 163 L 0 163 0 250.500 L 0 338 13 338 L 26 338 26 367 L 26 396 38.971 396 L 51.942 396 52.221 409.250 L 52.500 422.500 68.250 422.775 L 84 423.051 84 438.525 L 84 454 96.971 454 L 109.942 454 110.221 467.250 L 110.500 480.500 139.750 480.765 L 169 481.030 169 496.515 L 169 512 256 512 L 343 512 343 496.515 L 343 481.030 372.250 480.765 L 401.500 480.500 401.779 467.250 L 402.058 454 415.029 454 L 428 454 428 438.525 L 428 423.051 443.750 422.775 L 459.500 422.500 459.779 409.250 L 460.058 396 473.029 396 L 486 396 486 367.029 L 486 338.058 499.250 337.779 L 512.500 337.500 512.757 250 L 513.014 162.500 499.524 162.804 L 486.033 163.108 485.767 136.804 L 485.500 110.500 472.750 110.220 L 460 109.940 460 94.470 L 460 79 444 79 L 428 79 428 65.500 L 428 52 415 52 L 402 52 402 36.500 L 402 21 372.500 21 L 343 21 343 10.500 L 343 0 256 0 L 169 0 169 10.500 M 111 95.500 L 111 111 98 111 L 85 111 85 137 L 85 163 98 163 L 111 163 111 179 L 111 195 140 195 L 169 195 169 179 L 169 163 184.500 163 L 200 163 200 137 L 200 111 184.500 111 L 169 111 169 95.500 L 169 80 140 80 L 111 80 111 95.500 M 0.479 250.500 C 0.478 298.900, 0.600 318.846, 0.750 294.825 C 0.899 270.804, 0.899 231.204, 0.750 206.825 C 0.601 182.446, 0.479 202.100, 0.479 250.500 M 142.658 330.661 C 142.296 341.474, 142 360.374, 142 372.661 L 142 395 126.500 395 L 111 395 111 382 L 111 369 82 369 L 53 369 53 382.500 L 53 396 68.500 396 L 84 396 84 409 L 84 422 97.500 422 L 111 422 111 438 L 111 454 140 454 L 169 454 169 467 L 169 480 256 480 L 343 480 343 467 L 343 454 372 454 L 401 454 401 438 L 401 422 414 422 L 427 422 427 409 L 427 396 443 396 L 459 396 459 382.500 L 459 369 430 369 L 401 369 401 381.840 L 401 394.681 377.750 395.338 C 364.962 395.700, 325.813 395.996, 290.750 395.998 L 227 396 227 353.500 L 227 311 185.158 311 L 143.317 311 142.658 330.661 M 143 409 L 143 422 185 422 L 227 422 227 409 L 227 396 185 396 L 143 396 143 409" stroke="none" fill="#df3a2c" fill-rule="evenodd"/></svg>